<?xml version="1.0" encoding="utf-8"?>
<!-- Generator: Adobe Illustrator 16.0.4, SVG Export Plug-In . SVG Version: 6.00 Build 0)  -->
<!DOCTYPE svg PUBLIC "-//W3C//DTD SVG 1.1//EN" "http://www.w3.org/Graphics/SVG/1.1/DTD/svg11.dtd">
<svg version="1.1" id="Layer_1" xmlns="http://www.w3.org/2000/svg" xmlns:xlink="http://www.w3.org/1999/xlink" x="0px" y="0px"
	 width="38px" height="30.878px" viewBox="9.34 7.59 38 30.878" enable-background="new 9.34 7.59 38 30.878" xml:space="preserve">
<path fill="#CCCCCC" d="M28.368,7.59c-8.528,0-15.441,6.912-15.441,15.438c0,8.528,6.913,15.441,15.441,15.441
	c8.525,0,15.438-6.914,15.438-15.441C43.807,14.501,36.894,7.59,28.368,7.59 M38.333,23.027c0,5.501-4.464,9.961-9.965,9.961
	c-5.502,0-9.962-4.46-9.962-9.961c0-5.5,4.459-9.959,9.962-9.959C33.868,13.068,38.333,17.528,38.333,23.027"/>
<rect x="9.34" y="19.91" fill="#00A2A0" width="38" height="6.245"/>
</svg>
